<svg width="44" height="41" viewBox="0 0 44 41" fill="none" xmlns="http://www.w3.org/2000/svg">
<path d="M24.5223 39.957C23.1272 41.1777 20.8616 41.1777 19.4665 39.957L1.60937 24.332C0.214277 23.1113 0.214277 21.1289 1.60937 19.9082C3.00446 18.6875 5.27008 18.6875 6.66517 19.9082L22 33.3262L37.3348 19.918C38.7299 18.6973 40.9955 18.6973 42.3906 19.918C43.7857 21.1387 43.7857 23.1211 42.3906 24.3418L24.5335 39.9668L24.5223 39.957ZM42.3795 5.58203L24.5223 21.207C23.1272 22.4277 20.8616 22.4277 19.4665 21.207L1.60937 5.58203C0.214277 4.36133 0.214277 2.37891 1.60937 1.1582C3.00446 -0.0625 5.27008 -0.0625 6.66517 1.1582L22 14.5762L37.3348 1.16797C38.7299 -0.0527345 40.9955 -0.0527345 42.3906 1.16797C43.7857 2.38867 43.7857 4.37109 42.3906 5.5918L42.3795 5.58203Z" fill="white"/>
</svg>
